<svg width="21" height="21" viewBox="0 0 21 21" fill="none" xmlns="http://www.w3.org/2000/svg">
<path d="M14.6586 13.1622C14.5002 13.1622 14.3419 13.1038 14.2169 12.9788C13.9752 12.7372 13.9752 12.3372 14.2169 12.0955L15.9086 10.4038L14.2169 8.71217C13.9752 8.4705 13.9752 8.0705 14.2169 7.82884C14.4586 7.58717 14.8586 7.58717 15.1002 7.82884L17.2336 9.96217C17.4752 10.2038 17.4752 10.6038 17.2336 10.8455L15.1002 12.9788C14.9752 13.1038 14.8169 13.1622 14.6586 13.1622Z" fill="#757575"/>
<path d="M16.7333 11.0288H8.2583C7.91663 11.0288 7.6333 10.7455 7.6333 10.4038C7.6333 10.0622 7.91663 9.77884 8.2583 9.77884H16.7333C17.075 9.77884 17.3583 10.0622 17.3583 10.4038C17.3583 10.7455 17.075 11.0288 16.7333 11.0288Z" fill="#757575"/>
<path d="M9.92497 17.6455C5.6333 17.6455 2.6333 14.6455 2.6333 10.3538C2.6333 6.06217 5.6333 3.06217 9.92497 3.06217C10.2666 3.06217 10.55 3.3455 10.55 3.68717C10.55 4.02883 10.2666 4.31217 9.92497 4.31217C6.36663 4.31217 3.8833 6.7955 3.8833 10.3538C3.8833 13.9122 6.36663 16.3955 9.92497 16.3955C10.2666 16.3955 10.55 16.6788 10.55 17.0205C10.55 17.3622 10.2666 17.6455 9.92497 17.6455Z" fill="#757575"/>
</svg>
